<mxfile host="app.diagrams.net" modified="2020-09-16T18:57:42.936Z" agent="5.0 (Windows NT 10.0; Win64; x64) AppleWebKit/537.36 (KHTML, like Gecko) Chrome/85.0.4183.102 Safari/537.36 Edg/85.0.564.51" etag="q7MIBViE3Sc4XdT-icoz" version="13.7.1" type="github" pages="2">
  <diagram id="nJrg5weNIt6uF1st0Hgo" name="Page-1">
    <mxGraphModel dx="760" dy="450" grid="1" gridSize="10" guides="1" tooltips="1" connect="1" arrows="1" fold="1" page="1" pageScale="1" pageWidth="850" pageHeight="1100" math="0" shadow="0">
      <root>
        <mxCell id="0" />
        <mxCell id="1" parent="0" />
        <mxCell id="fCIiJYiWn4612jN8ktfM-1" value="&lt;font style=&quot;font-size: 19px&quot;&gt;ผู้ใช้งาน&lt;/font&gt;" style="rounded=0;whiteSpace=wrap;html=1;" parent="1" vertex="1">
          <mxGeometry x="75" y="85" width="120" height="60" as="geometry" />
        </mxCell>
        <mxCell id="fCIiJYiWn4612jN8ktfM-2" value="&lt;font style=&quot;font-size: 16px&quot;&gt;&lt;br&gt;สมัครใช้งานระบบ&lt;br&gt;(อาสาสมัคร)&lt;br&gt;&lt;/font&gt;" style="ellipse;whiteSpace=wrap;html=1;aspect=fixed;" parent="1" vertex="1">
          <mxGeometry x="355" y="50" width="130" height="130" as="geometry" />
        </mxCell>
        <mxCell id="fCIiJYiWn4612jN8ktfM-3" value="" style="endArrow=none;html=1;" parent="1" edge="1">
          <mxGeometry width="50" height="50" relative="1" as="geometry">
            <mxPoint x="175" y="85" as="sourcePoint" />
            <mxPoint x="175" y="50" as="targetPoint" />
          </mxGeometry>
        </mxCell>
        <mxCell id="fCIiJYiWn4612jN8ktfM-4" value="" style="endArrow=classic;html=1;entryX=0.308;entryY=0;entryDx=0;entryDy=0;entryPerimeter=0;" parent="1" target="fCIiJYiWn4612jN8ktfM-2" edge="1">
          <mxGeometry width="50" height="50" relative="1" as="geometry">
            <mxPoint x="175" y="50" as="sourcePoint" />
            <mxPoint x="225" as="targetPoint" />
          </mxGeometry>
        </mxCell>
        <mxCell id="fCIiJYiWn4612jN8ktfM-5" value="&lt;font style=&quot;font-size: 15px&quot;&gt;ชื่อ&lt;/font&gt;" style="text;html=1;align=center;verticalAlign=middle;resizable=0;points=[];autosize=1;" parent="1" vertex="1">
          <mxGeometry x="270" y="30" width="30" height="20" as="geometry" />
        </mxCell>
        <mxCell id="fCIiJYiWn4612jN8ktfM-6" value="" style="endArrow=classic;html=1;entryX=0;entryY=0;entryDx=0;entryDy=0;" parent="1" target="fCIiJYiWn4612jN8ktfM-2" edge="1">
          <mxGeometry width="50" height="50" relative="1" as="geometry">
            <mxPoint x="195" y="70" as="sourcePoint" />
            <mxPoint x="270" y="85" as="targetPoint" />
            <Array as="points">
              <mxPoint x="275" y="70" />
            </Array>
          </mxGeometry>
        </mxCell>
        <mxCell id="fCIiJYiWn4612jN8ktfM-7" value="&lt;font style=&quot;font-size: 14px&quot;&gt;นามสกุล&lt;/font&gt;" style="text;html=1;align=center;verticalAlign=middle;resizable=0;points=[];autosize=1;" parent="1" vertex="1">
          <mxGeometry x="250" y="50" width="70" height="20" as="geometry" />
        </mxCell>
        <mxCell id="fCIiJYiWn4612jN8ktfM-8" value="" style="endArrow=classic;html=1;exitX=1.003;exitY=0.12;exitDx=0;exitDy=0;exitPerimeter=0;entryX=-0.004;entryY=0.328;entryDx=0;entryDy=0;entryPerimeter=0;" parent="1" source="fCIiJYiWn4612jN8ktfM-1" target="fCIiJYiWn4612jN8ktfM-2" edge="1">
          <mxGeometry width="50" height="50" relative="1" as="geometry">
            <mxPoint x="195" y="105" as="sourcePoint" />
            <mxPoint x="353" y="90" as="targetPoint" />
            <Array as="points" />
          </mxGeometry>
        </mxCell>
        <mxCell id="fCIiJYiWn4612jN8ktfM-9" value="&lt;font style=&quot;font-size: 14px&quot;&gt;เบอร์&lt;/font&gt;" style="text;html=1;align=center;verticalAlign=middle;resizable=0;points=[];autosize=1;" parent="1" vertex="1">
          <mxGeometry x="265" y="70" width="40" height="20" as="geometry" />
        </mxCell>
        <mxCell id="fCIiJYiWn4612jN8ktfM-10" value="&lt;font style=&quot;font-size: 14px&quot;&gt;อีเมล&lt;/font&gt;" style="text;html=1;align=center;verticalAlign=middle;resizable=0;points=[];autosize=1;" parent="1" vertex="1">
          <mxGeometry x="255" y="100" width="50" height="20" as="geometry" />
        </mxCell>
        <mxCell id="fCIiJYiWn4612jN8ktfM-11" value="" style="endArrow=none;html=1;" parent="1" edge="1">
          <mxGeometry width="50" height="50" relative="1" as="geometry">
            <mxPoint x="195" y="85" as="sourcePoint" />
            <mxPoint x="195" y="70" as="targetPoint" />
          </mxGeometry>
        </mxCell>
        <mxCell id="fCIiJYiWn4612jN8ktfM-12" value="" style="endArrow=classic;html=1;" parent="1" edge="1">
          <mxGeometry width="50" height="50" relative="1" as="geometry">
            <mxPoint x="195" y="120" as="sourcePoint" />
            <mxPoint x="345" y="120" as="targetPoint" />
          </mxGeometry>
        </mxCell>
        <mxCell id="fCIiJYiWn4612jN8ktfM-13" value="" style="endArrow=classic;html=1;" parent="1" edge="1">
          <mxGeometry width="50" height="50" relative="1" as="geometry">
            <mxPoint x="195" y="145" as="sourcePoint" />
            <mxPoint x="355" y="145" as="targetPoint" />
          </mxGeometry>
        </mxCell>
        <mxCell id="fCIiJYiWn4612jN8ktfM-14" value="&lt;font style=&quot;font-size: 13px&quot;&gt;User ID&lt;/font&gt;" style="text;html=1;align=center;verticalAlign=middle;resizable=0;points=[];autosize=1;" parent="1" vertex="1">
          <mxGeometry x="250" y="125" width="60" height="20" as="geometry" />
        </mxCell>
        <mxCell id="fCIiJYiWn4612jN8ktfM-15" value="" style="endArrow=classic;html=1;entryX=0.308;entryY=1;entryDx=0;entryDy=0;entryPerimeter=0;" parent="1" target="fCIiJYiWn4612jN8ktfM-2" edge="1">
          <mxGeometry width="50" height="50" relative="1" as="geometry">
            <mxPoint x="175" y="180" as="sourcePoint" />
            <mxPoint x="225" y="130" as="targetPoint" />
          </mxGeometry>
        </mxCell>
        <mxCell id="fCIiJYiWn4612jN8ktfM-16" value="" style="endArrow=none;html=1;entryX=0.833;entryY=1.083;entryDx=0;entryDy=0;entryPerimeter=0;" parent="1" target="fCIiJYiWn4612jN8ktfM-1" edge="1">
          <mxGeometry width="50" height="50" relative="1" as="geometry">
            <mxPoint x="175" y="180" as="sourcePoint" />
            <mxPoint x="225" y="130" as="targetPoint" />
          </mxGeometry>
        </mxCell>
        <mxCell id="fCIiJYiWn4612jN8ktfM-17" value="&lt;font style=&quot;font-size: 15px&quot;&gt;password&lt;/font&gt;" style="text;html=1;align=center;verticalAlign=middle;resizable=0;points=[];autosize=1;" parent="1" vertex="1">
          <mxGeometry x="245" y="160" width="80" height="20" as="geometry" />
        </mxCell>
        <mxCell id="fCIiJYiWn4612jN8ktfM-18" value="" style="endArrow=classic;html=1;" parent="1" edge="1">
          <mxGeometry width="50" height="50" relative="1" as="geometry">
            <mxPoint x="695" y="60" as="sourcePoint" />
            <mxPoint x="695" y="90" as="targetPoint" />
          </mxGeometry>
        </mxCell>
        <mxCell id="fCIiJYiWn4612jN8ktfM-19" value="&lt;font style=&quot;font-size: 15px&quot;&gt;ชื่อ&lt;/font&gt;" style="text;html=1;align=center;verticalAlign=middle;resizable=0;points=[];autosize=1;" parent="1" vertex="1">
          <mxGeometry x="550" y="40" width="30" height="20" as="geometry" />
        </mxCell>
        <mxCell id="fCIiJYiWn4612jN8ktfM-20" value="" style="endArrow=classic;html=1;" parent="1" edge="1">
          <mxGeometry width="50" height="50" relative="1" as="geometry">
            <mxPoint x="475.48" y="85.96000000000004" as="sourcePoint" />
            <mxPoint x="665" y="85" as="targetPoint" />
            <Array as="points">
              <mxPoint x="555.48" y="85.96000000000004" />
            </Array>
          </mxGeometry>
        </mxCell>
        <mxCell id="fCIiJYiWn4612jN8ktfM-21" value="&lt;font style=&quot;font-size: 14px&quot;&gt;นามสกุล&lt;/font&gt;" style="text;html=1;align=center;verticalAlign=middle;resizable=0;points=[];autosize=1;" parent="1" vertex="1">
          <mxGeometry x="530" y="65" width="70" height="20" as="geometry" />
        </mxCell>
        <mxCell id="fCIiJYiWn4612jN8ktfM-22" value="" style="endArrow=classic;html=1;" parent="1" edge="1">
          <mxGeometry width="50" height="50" relative="1" as="geometry">
            <mxPoint x="485" y="110" as="sourcePoint" />
            <mxPoint x="665" y="110" as="targetPoint" />
            <Array as="points" />
          </mxGeometry>
        </mxCell>
        <mxCell id="fCIiJYiWn4612jN8ktfM-23" value="&lt;font style=&quot;font-size: 14px&quot;&gt;เบอร์&lt;/font&gt;" style="text;html=1;align=center;verticalAlign=middle;resizable=0;points=[];autosize=1;" parent="1" vertex="1">
          <mxGeometry x="540" y="90" width="40" height="20" as="geometry" />
        </mxCell>
        <mxCell id="fCIiJYiWn4612jN8ktfM-24" value="&lt;font style=&quot;font-size: 14px&quot;&gt;อีเมล&lt;/font&gt;" style="text;html=1;align=center;verticalAlign=middle;resizable=0;points=[];autosize=1;" parent="1" vertex="1">
          <mxGeometry x="540" y="110" width="50" height="20" as="geometry" />
        </mxCell>
        <mxCell id="fCIiJYiWn4612jN8ktfM-25" value="" style="endArrow=classic;html=1;" parent="1" edge="1">
          <mxGeometry width="50" height="50" relative="1" as="geometry">
            <mxPoint x="485" y="134.5" as="sourcePoint" />
            <mxPoint x="665" y="135" as="targetPoint" />
          </mxGeometry>
        </mxCell>
        <mxCell id="fCIiJYiWn4612jN8ktfM-26" value="" style="endArrow=classic;html=1;" parent="1" edge="1">
          <mxGeometry width="50" height="50" relative="1" as="geometry">
            <mxPoint x="465" y="159" as="sourcePoint" />
            <mxPoint x="665" y="159" as="targetPoint" />
          </mxGeometry>
        </mxCell>
        <mxCell id="fCIiJYiWn4612jN8ktfM-27" value="&lt;font style=&quot;font-size: 13px&quot;&gt;User ID&lt;/font&gt;" style="text;html=1;align=center;verticalAlign=middle;resizable=0;points=[];autosize=1;" parent="1" vertex="1">
          <mxGeometry x="535" y="140" width="60" height="20" as="geometry" />
        </mxCell>
        <mxCell id="fCIiJYiWn4612jN8ktfM-28" value="" style="endArrow=none;html=1;" parent="1" edge="1">
          <mxGeometry width="50" height="50" relative="1" as="geometry">
            <mxPoint x="455" y="190" as="sourcePoint" />
            <mxPoint x="455" y="170" as="targetPoint" />
          </mxGeometry>
        </mxCell>
        <mxCell id="fCIiJYiWn4612jN8ktfM-29" value="&lt;font style=&quot;font-size: 15px&quot;&gt;password&lt;/font&gt;" style="text;html=1;align=center;verticalAlign=middle;resizable=0;points=[];autosize=1;" parent="1" vertex="1">
          <mxGeometry x="520" y="170" width="80" height="20" as="geometry" />
        </mxCell>
        <mxCell id="fCIiJYiWn4612jN8ktfM-30" value="" style="endArrow=none;html=1;" parent="1" edge="1">
          <mxGeometry width="50" height="50" relative="1" as="geometry">
            <mxPoint x="462.25" y="59.5" as="sourcePoint" />
            <mxPoint x="695" y="60" as="targetPoint" />
          </mxGeometry>
        </mxCell>
        <mxCell id="fCIiJYiWn4612jN8ktfM-31" value="" style="endArrow=none;html=1;" parent="1" edge="1">
          <mxGeometry width="50" height="50" relative="1" as="geometry">
            <mxPoint x="455" y="190" as="sourcePoint" />
            <mxPoint x="695" y="190" as="targetPoint" />
          </mxGeometry>
        </mxCell>
        <mxCell id="fCIiJYiWn4612jN8ktfM-32" value="" style="endArrow=classic;html=1;" parent="1" edge="1">
          <mxGeometry width="50" height="50" relative="1" as="geometry">
            <mxPoint x="695" y="190" as="sourcePoint" />
            <mxPoint x="695" y="150" as="targetPoint" />
          </mxGeometry>
        </mxCell>
        <mxCell id="fCIiJYiWn4612jN8ktfM-33" value="" style="endArrow=none;html=1;entryX=0.446;entryY=1.026;entryDx=0;entryDy=0;entryPerimeter=0;" parent="1" target="fCIiJYiWn4612jN8ktfM-2" edge="1">
          <mxGeometry width="50" height="50" relative="1" as="geometry">
            <mxPoint x="413" y="210" as="sourcePoint" />
            <mxPoint x="415" y="210" as="targetPoint" />
          </mxGeometry>
        </mxCell>
        <mxCell id="fCIiJYiWn4612jN8ktfM-34" value="" style="endArrow=none;html=1;" parent="1" edge="1">
          <mxGeometry width="50" height="50" relative="1" as="geometry">
            <mxPoint x="145" y="210" as="sourcePoint" />
            <mxPoint x="415" y="210" as="targetPoint" />
          </mxGeometry>
        </mxCell>
        <mxCell id="fCIiJYiWn4612jN8ktfM-35" value="" style="endArrow=classic;html=1;" parent="1" edge="1">
          <mxGeometry width="50" height="50" relative="1" as="geometry">
            <mxPoint x="145" y="210" as="sourcePoint" />
            <mxPoint x="145" y="150" as="targetPoint" />
          </mxGeometry>
        </mxCell>
        <mxCell id="fCIiJYiWn4612jN8ktfM-36" value="&lt;font style=&quot;font-size: 15px&quot;&gt;ข้อความยืนยัน&lt;/font&gt;" style="text;html=1;align=center;verticalAlign=middle;resizable=0;points=[];autosize=1;" parent="1" vertex="1">
          <mxGeometry x="235" y="190" width="100" height="20" as="geometry" />
        </mxCell>
        <mxCell id="fCIiJYiWn4612jN8ktfM-37" value="&lt;font style=&quot;font-size: 19px&quot;&gt;ผู้ใช้งาน&lt;/font&gt;" style="rounded=0;whiteSpace=wrap;html=1;" parent="1" vertex="1">
          <mxGeometry x="85" y="735" width="120" height="60" as="geometry" />
        </mxCell>
        <mxCell id="fCIiJYiWn4612jN8ktfM-38" value="&lt;font style=&quot;font-size: 16px&quot;&gt;&lt;br&gt;เข้าสู่ระบบ&lt;br&gt;&lt;/font&gt;" style="ellipse;whiteSpace=wrap;html=1;aspect=fixed;" parent="1" vertex="1">
          <mxGeometry x="354" y="700" width="130" height="130" as="geometry" />
        </mxCell>
        <mxCell id="fCIiJYiWn4612jN8ktfM-39" value="" style="endArrow=classic;html=1;" parent="1" edge="1">
          <mxGeometry width="50" height="50" relative="1" as="geometry">
            <mxPoint x="205" y="755" as="sourcePoint" />
            <mxPoint x="345" y="755" as="targetPoint" />
          </mxGeometry>
        </mxCell>
        <mxCell id="fCIiJYiWn4612jN8ktfM-40" value="&lt;font style=&quot;font-size: 14px&quot;&gt;User ID&lt;/font&gt;" style="text;html=1;align=center;verticalAlign=middle;resizable=0;points=[];autosize=1;" parent="1" vertex="1">
          <mxGeometry x="235" y="735" width="60" height="20" as="geometry" />
        </mxCell>
        <mxCell id="fCIiJYiWn4612jN8ktfM-41" value="" style="endArrow=classic;html=1;" parent="1" edge="1">
          <mxGeometry width="50" height="50" relative="1" as="geometry">
            <mxPoint x="205" y="785" as="sourcePoint" />
            <mxPoint x="345" y="785" as="targetPoint" />
          </mxGeometry>
        </mxCell>
        <mxCell id="fCIiJYiWn4612jN8ktfM-42" value="&lt;font style=&quot;font-size: 14px&quot;&gt;password&lt;/font&gt;" style="text;html=1;align=center;verticalAlign=middle;resizable=0;points=[];autosize=1;" parent="1" vertex="1">
          <mxGeometry x="225" y="765" width="80" height="20" as="geometry" />
        </mxCell>
        <mxCell id="fCIiJYiWn4612jN8ktfM-43" value="" style="endArrow=classic;html=1;" parent="1" edge="1">
          <mxGeometry width="50" height="50" relative="1" as="geometry">
            <mxPoint x="635" y="750" as="sourcePoint" />
            <mxPoint x="485" y="750" as="targetPoint" />
          </mxGeometry>
        </mxCell>
        <mxCell id="fCIiJYiWn4612jN8ktfM-44" value="" style="endArrow=classic;html=1;" parent="1" edge="1">
          <mxGeometry width="50" height="50" relative="1" as="geometry">
            <mxPoint x="634" y="785" as="sourcePoint" />
            <mxPoint x="484" y="785" as="targetPoint" />
          </mxGeometry>
        </mxCell>
        <mxCell id="fCIiJYiWn4612jN8ktfM-45" value="&lt;font style=&quot;font-size: 14px&quot;&gt;User ID&lt;/font&gt;" style="text;html=1;align=center;verticalAlign=middle;resizable=0;points=[];autosize=1;" parent="1" vertex="1">
          <mxGeometry x="540" y="732" width="60" height="20" as="geometry" />
        </mxCell>
        <mxCell id="fCIiJYiWn4612jN8ktfM-46" value="&lt;font style=&quot;font-size: 14px&quot;&gt;password&lt;/font&gt;" style="text;html=1;align=center;verticalAlign=middle;resizable=0;points=[];autosize=1;" parent="1" vertex="1">
          <mxGeometry x="530" y="765" width="80" height="20" as="geometry" />
        </mxCell>
        <mxCell id="fCIiJYiWn4612jN8ktfM-47" value="" style="endArrow=none;html=1;" parent="1" edge="1">
          <mxGeometry width="50" height="50" relative="1" as="geometry">
            <mxPoint x="175" y="815" as="sourcePoint" />
            <mxPoint x="375" y="815" as="targetPoint" />
          </mxGeometry>
        </mxCell>
        <mxCell id="fCIiJYiWn4612jN8ktfM-48" value="" style="endArrow=classic;html=1;entryX=0.75;entryY=1;entryDx=0;entryDy=0;" parent="1" target="fCIiJYiWn4612jN8ktfM-37" edge="1">
          <mxGeometry width="50" height="50" relative="1" as="geometry">
            <mxPoint x="175" y="815" as="sourcePoint" />
            <mxPoint x="445" y="725" as="targetPoint" />
          </mxGeometry>
        </mxCell>
        <mxCell id="fCIiJYiWn4612jN8ktfM-49" value="&lt;font style=&quot;font-size: 14px&quot;&gt;ข้อความยืนยันการเข้าระบบ&lt;/font&gt;" style="text;html=1;align=center;verticalAlign=middle;resizable=0;points=[];autosize=1;" parent="1" vertex="1">
          <mxGeometry x="190" y="795" width="170" height="20" as="geometry" />
        </mxCell>
        <mxCell id="fCIiJYiWn4612jN8ktfM-52" value="" style="group" parent="1" vertex="1" connectable="0">
          <mxGeometry x="655" y="755" width="100" height="20" as="geometry" />
        </mxCell>
        <mxCell id="fCIiJYiWn4612jN8ktfM-53" value="" style="shape=link;html=1;width=49;" parent="fCIiJYiWn4612jN8ktfM-52" edge="1">
          <mxGeometry width="100" relative="1" as="geometry">
            <mxPoint y="10" as="sourcePoint" />
            <mxPoint x="100" y="10" as="targetPoint" />
          </mxGeometry>
        </mxCell>
        <mxCell id="fCIiJYiWn4612jN8ktfM-54" value="&lt;font style=&quot;font-size: 15px&quot;&gt;ข้อมูลผู้ใช้งาน&lt;/font&gt;" style="text;html=1;align=center;verticalAlign=middle;resizable=0;points=[];autosize=1;" parent="fCIiJYiWn4612jN8ktfM-52" vertex="1">
          <mxGeometry width="100" height="20" as="geometry" />
        </mxCell>
        <mxCell id="fCIiJYiWn4612jN8ktfM-58" value="" style="group" parent="1" vertex="1" connectable="0">
          <mxGeometry x="675" y="110" width="100" height="20" as="geometry" />
        </mxCell>
        <mxCell id="fCIiJYiWn4612jN8ktfM-59" value="" style="shape=link;html=1;width=49;" parent="fCIiJYiWn4612jN8ktfM-58" edge="1">
          <mxGeometry width="100" relative="1" as="geometry">
            <mxPoint y="9" as="sourcePoint" />
            <mxPoint x="100" y="9" as="targetPoint" />
          </mxGeometry>
        </mxCell>
        <mxCell id="fCIiJYiWn4612jN8ktfM-60" value="&lt;font style=&quot;font-size: 15px&quot;&gt;ข้อมูลผู้ใช้งาน&lt;/font&gt;" style="text;html=1;align=center;verticalAlign=middle;resizable=0;points=[];autosize=1;" parent="fCIiJYiWn4612jN8ktfM-58" vertex="1">
          <mxGeometry width="100" height="20" as="geometry" />
        </mxCell>
        <mxCell id="fCIiJYiWn4612jN8ktfM-62" value="&lt;font style=&quot;font-size: 19px&quot;&gt;ผู้ใช้งาน&lt;/font&gt;" style="rounded=0;whiteSpace=wrap;html=1;" parent="1" vertex="1">
          <mxGeometry x="90" y="425" width="120" height="60" as="geometry" />
        </mxCell>
        <mxCell id="fCIiJYiWn4612jN8ktfM-63" value="&lt;font style=&quot;font-size: 16px&quot;&gt;&lt;br&gt;สมัครใช้งานระบบ&lt;br&gt;(ผู้พิการ)&lt;br&gt;&lt;/font&gt;" style="ellipse;whiteSpace=wrap;html=1;aspect=fixed;" parent="1" vertex="1">
          <mxGeometry x="370" y="390" width="130" height="130" as="geometry" />
        </mxCell>
        <mxCell id="fCIiJYiWn4612jN8ktfM-64" value="" style="endArrow=none;html=1;" parent="1" edge="1">
          <mxGeometry width="50" height="50" relative="1" as="geometry">
            <mxPoint x="190" y="425" as="sourcePoint" />
            <mxPoint x="190" y="390" as="targetPoint" />
          </mxGeometry>
        </mxCell>
        <mxCell id="fCIiJYiWn4612jN8ktfM-65" value="" style="endArrow=classic;html=1;entryX=0.308;entryY=0;entryDx=0;entryDy=0;entryPerimeter=0;" parent="1" target="fCIiJYiWn4612jN8ktfM-63" edge="1">
          <mxGeometry width="50" height="50" relative="1" as="geometry">
            <mxPoint x="190" y="390" as="sourcePoint" />
            <mxPoint x="240" y="340" as="targetPoint" />
          </mxGeometry>
        </mxCell>
        <mxCell id="fCIiJYiWn4612jN8ktfM-66" value="&lt;font style=&quot;font-size: 15px&quot;&gt;ชื่อ&lt;/font&gt;" style="text;html=1;align=center;verticalAlign=middle;resizable=0;points=[];autosize=1;" parent="1" vertex="1">
          <mxGeometry x="285" y="370" width="30" height="20" as="geometry" />
        </mxCell>
        <mxCell id="fCIiJYiWn4612jN8ktfM-67" value="" style="endArrow=classic;html=1;entryX=0;entryY=0;entryDx=0;entryDy=0;" parent="1" target="fCIiJYiWn4612jN8ktfM-63" edge="1">
          <mxGeometry width="50" height="50" relative="1" as="geometry">
            <mxPoint x="210" y="410" as="sourcePoint" />
            <mxPoint x="285" y="425" as="targetPoint" />
            <Array as="points">
              <mxPoint x="290" y="410" />
            </Array>
          </mxGeometry>
        </mxCell>
        <mxCell id="fCIiJYiWn4612jN8ktfM-68" value="&lt;font style=&quot;font-size: 14px&quot;&gt;นามสกุล&lt;/font&gt;" style="text;html=1;align=center;verticalAlign=middle;resizable=0;points=[];autosize=1;" parent="1" vertex="1">
          <mxGeometry x="265" y="390" width="70" height="20" as="geometry" />
        </mxCell>
        <mxCell id="fCIiJYiWn4612jN8ktfM-69" value="" style="endArrow=classic;html=1;exitX=1.003;exitY=0.12;exitDx=0;exitDy=0;exitPerimeter=0;entryX=-0.004;entryY=0.328;entryDx=0;entryDy=0;entryPerimeter=0;" parent="1" source="fCIiJYiWn4612jN8ktfM-62" target="fCIiJYiWn4612jN8ktfM-63" edge="1">
          <mxGeometry width="50" height="50" relative="1" as="geometry">
            <mxPoint x="210" y="445" as="sourcePoint" />
            <mxPoint x="368" y="430" as="targetPoint" />
            <Array as="points" />
          </mxGeometry>
        </mxCell>
        <mxCell id="fCIiJYiWn4612jN8ktfM-70" value="&lt;font style=&quot;font-size: 14px&quot;&gt;เบอร์&lt;/font&gt;" style="text;html=1;align=center;verticalAlign=middle;resizable=0;points=[];autosize=1;" parent="1" vertex="1">
          <mxGeometry x="280" y="410" width="40" height="20" as="geometry" />
        </mxCell>
        <mxCell id="fCIiJYiWn4612jN8ktfM-71" value="&lt;font style=&quot;font-size: 14px&quot;&gt;อีเมล&lt;/font&gt;" style="text;html=1;align=center;verticalAlign=middle;resizable=0;points=[];autosize=1;" parent="1" vertex="1">
          <mxGeometry x="270" y="440" width="50" height="20" as="geometry" />
        </mxCell>
        <mxCell id="fCIiJYiWn4612jN8ktfM-72" value="" style="endArrow=none;html=1;" parent="1" edge="1">
          <mxGeometry width="50" height="50" relative="1" as="geometry">
            <mxPoint x="210" y="425" as="sourcePoint" />
            <mxPoint x="210" y="410" as="targetPoint" />
          </mxGeometry>
        </mxCell>
        <mxCell id="fCIiJYiWn4612jN8ktfM-73" value="" style="endArrow=classic;html=1;" parent="1" edge="1">
          <mxGeometry width="50" height="50" relative="1" as="geometry">
            <mxPoint x="210" y="460" as="sourcePoint" />
            <mxPoint x="360" y="460" as="targetPoint" />
          </mxGeometry>
        </mxCell>
        <mxCell id="fCIiJYiWn4612jN8ktfM-74" value="" style="endArrow=classic;html=1;" parent="1" edge="1">
          <mxGeometry width="50" height="50" relative="1" as="geometry">
            <mxPoint x="210" y="485" as="sourcePoint" />
            <mxPoint x="370" y="485" as="targetPoint" />
          </mxGeometry>
        </mxCell>
        <mxCell id="fCIiJYiWn4612jN8ktfM-75" value="&lt;font style=&quot;font-size: 13px&quot;&gt;User ID&lt;/font&gt;" style="text;html=1;align=center;verticalAlign=middle;resizable=0;points=[];autosize=1;" parent="1" vertex="1">
          <mxGeometry x="265" y="465" width="60" height="20" as="geometry" />
        </mxCell>
        <mxCell id="fCIiJYiWn4612jN8ktfM-76" value="" style="endArrow=classic;html=1;entryX=0.308;entryY=1;entryDx=0;entryDy=0;entryPerimeter=0;" parent="1" target="fCIiJYiWn4612jN8ktfM-63" edge="1">
          <mxGeometry width="50" height="50" relative="1" as="geometry">
            <mxPoint x="190" y="520" as="sourcePoint" />
            <mxPoint x="240" y="470" as="targetPoint" />
          </mxGeometry>
        </mxCell>
        <mxCell id="fCIiJYiWn4612jN8ktfM-77" value="" style="endArrow=none;html=1;entryX=0.833;entryY=1.083;entryDx=0;entryDy=0;entryPerimeter=0;" parent="1" target="fCIiJYiWn4612jN8ktfM-62" edge="1">
          <mxGeometry width="50" height="50" relative="1" as="geometry">
            <mxPoint x="190" y="520" as="sourcePoint" />
            <mxPoint x="240" y="470" as="targetPoint" />
          </mxGeometry>
        </mxCell>
        <mxCell id="fCIiJYiWn4612jN8ktfM-78" value="&lt;font style=&quot;font-size: 15px&quot;&gt;password&lt;/font&gt;" style="text;html=1;align=center;verticalAlign=middle;resizable=0;points=[];autosize=1;" parent="1" vertex="1">
          <mxGeometry x="260" y="500" width="80" height="20" as="geometry" />
        </mxCell>
        <mxCell id="fCIiJYiWn4612jN8ktfM-79" value="" style="endArrow=classic;html=1;" parent="1" edge="1">
          <mxGeometry width="50" height="50" relative="1" as="geometry">
            <mxPoint x="710" y="400" as="sourcePoint" />
            <mxPoint x="710" y="430" as="targetPoint" />
          </mxGeometry>
        </mxCell>
        <mxCell id="fCIiJYiWn4612jN8ktfM-80" value="&lt;font style=&quot;font-size: 15px&quot;&gt;ชื่อ&lt;/font&gt;" style="text;html=1;align=center;verticalAlign=middle;resizable=0;points=[];autosize=1;" parent="1" vertex="1">
          <mxGeometry x="565" y="380" width="30" height="20" as="geometry" />
        </mxCell>
        <mxCell id="fCIiJYiWn4612jN8ktfM-81" value="" style="endArrow=classic;html=1;" parent="1" edge="1">
          <mxGeometry width="50" height="50" relative="1" as="geometry">
            <mxPoint x="490.48" y="425.96000000000004" as="sourcePoint" />
            <mxPoint x="680" y="425" as="targetPoint" />
            <Array as="points">
              <mxPoint x="570.48" y="425.96000000000004" />
            </Array>
          </mxGeometry>
        </mxCell>
        <mxCell id="fCIiJYiWn4612jN8ktfM-82" value="&lt;font style=&quot;font-size: 14px&quot;&gt;นามสกุล&lt;/font&gt;" style="text;html=1;align=center;verticalAlign=middle;resizable=0;points=[];autosize=1;" parent="1" vertex="1">
          <mxGeometry x="545" y="405" width="70" height="20" as="geometry" />
        </mxCell>
        <mxCell id="fCIiJYiWn4612jN8ktfM-83" value="" style="endArrow=classic;html=1;" parent="1" edge="1">
          <mxGeometry width="50" height="50" relative="1" as="geometry">
            <mxPoint x="500" y="450" as="sourcePoint" />
            <mxPoint x="680" y="450" as="targetPoint" />
            <Array as="points" />
          </mxGeometry>
        </mxCell>
        <mxCell id="fCIiJYiWn4612jN8ktfM-84" value="&lt;font style=&quot;font-size: 14px&quot;&gt;เบอร์&lt;/font&gt;" style="text;html=1;align=center;verticalAlign=middle;resizable=0;points=[];autosize=1;" parent="1" vertex="1">
          <mxGeometry x="555" y="430" width="40" height="20" as="geometry" />
        </mxCell>
        <mxCell id="fCIiJYiWn4612jN8ktfM-85" value="&lt;font style=&quot;font-size: 14px&quot;&gt;อีเมล&lt;/font&gt;" style="text;html=1;align=center;verticalAlign=middle;resizable=0;points=[];autosize=1;" parent="1" vertex="1">
          <mxGeometry x="555" y="450" width="50" height="20" as="geometry" />
        </mxCell>
        <mxCell id="fCIiJYiWn4612jN8ktfM-86" value="" style="endArrow=classic;html=1;" parent="1" edge="1">
          <mxGeometry width="50" height="50" relative="1" as="geometry">
            <mxPoint x="500" y="474.5" as="sourcePoint" />
            <mxPoint x="680" y="475" as="targetPoint" />
          </mxGeometry>
        </mxCell>
        <mxCell id="fCIiJYiWn4612jN8ktfM-87" value="" style="endArrow=classic;html=1;" parent="1" edge="1">
          <mxGeometry width="50" height="50" relative="1" as="geometry">
            <mxPoint x="480" y="499" as="sourcePoint" />
            <mxPoint x="680" y="499" as="targetPoint" />
          </mxGeometry>
        </mxCell>
        <mxCell id="fCIiJYiWn4612jN8ktfM-88" value="&lt;font style=&quot;font-size: 13px&quot;&gt;User ID&lt;/font&gt;" style="text;html=1;align=center;verticalAlign=middle;resizable=0;points=[];autosize=1;" parent="1" vertex="1">
          <mxGeometry x="550" y="480" width="60" height="20" as="geometry" />
        </mxCell>
        <mxCell id="fCIiJYiWn4612jN8ktfM-89" value="" style="endArrow=none;html=1;" parent="1" edge="1">
          <mxGeometry width="50" height="50" relative="1" as="geometry">
            <mxPoint x="470" y="530" as="sourcePoint" />
            <mxPoint x="470" y="510" as="targetPoint" />
          </mxGeometry>
        </mxCell>
        <mxCell id="fCIiJYiWn4612jN8ktfM-90" value="&lt;font style=&quot;font-size: 15px&quot;&gt;password&lt;/font&gt;" style="text;html=1;align=center;verticalAlign=middle;resizable=0;points=[];autosize=1;" parent="1" vertex="1">
          <mxGeometry x="535" y="510" width="80" height="20" as="geometry" />
        </mxCell>
        <mxCell id="fCIiJYiWn4612jN8ktfM-91" value="" style="endArrow=none;html=1;" parent="1" edge="1">
          <mxGeometry width="50" height="50" relative="1" as="geometry">
            <mxPoint x="477.25" y="399.5" as="sourcePoint" />
            <mxPoint x="710" y="400" as="targetPoint" />
          </mxGeometry>
        </mxCell>
        <mxCell id="fCIiJYiWn4612jN8ktfM-92" value="" style="endArrow=none;html=1;" parent="1" edge="1">
          <mxGeometry width="50" height="50" relative="1" as="geometry">
            <mxPoint x="470" y="530" as="sourcePoint" />
            <mxPoint x="710" y="530" as="targetPoint" />
          </mxGeometry>
        </mxCell>
        <mxCell id="fCIiJYiWn4612jN8ktfM-93" value="" style="endArrow=classic;html=1;" parent="1" edge="1">
          <mxGeometry width="50" height="50" relative="1" as="geometry">
            <mxPoint x="710" y="530" as="sourcePoint" />
            <mxPoint x="710" y="490" as="targetPoint" />
          </mxGeometry>
        </mxCell>
        <mxCell id="fCIiJYiWn4612jN8ktfM-98" value="" style="group" parent="1" vertex="1" connectable="0">
          <mxGeometry x="690" y="450" width="100" height="20" as="geometry" />
        </mxCell>
        <mxCell id="fCIiJYiWn4612jN8ktfM-99" value="" style="shape=link;html=1;width=49;" parent="fCIiJYiWn4612jN8ktfM-98" edge="1">
          <mxGeometry width="100" relative="1" as="geometry">
            <mxPoint y="9" as="sourcePoint" />
            <mxPoint x="100" y="9" as="targetPoint" />
          </mxGeometry>
        </mxCell>
        <mxCell id="fCIiJYiWn4612jN8ktfM-100" value="&lt;font style=&quot;font-size: 15px&quot;&gt;ข้อมูลผู้ใช้งาน&lt;/font&gt;" style="text;html=1;align=center;verticalAlign=middle;resizable=0;points=[];autosize=1;" parent="fCIiJYiWn4612jN8ktfM-98" vertex="1">
          <mxGeometry width="100" height="20" as="geometry" />
        </mxCell>
        <mxCell id="fCIiJYiWn4612jN8ktfM-101" value="" style="endArrow=classic;html=1;entryX=0.5;entryY=0;entryDx=0;entryDy=0;" parent="1" target="fCIiJYiWn4612jN8ktfM-63" edge="1">
          <mxGeometry width="50" height="50" relative="1" as="geometry">
            <mxPoint x="170" y="420" as="sourcePoint" />
            <mxPoint x="470" y="460" as="targetPoint" />
            <Array as="points">
              <mxPoint x="170" y="360" />
              <mxPoint x="290" y="360" />
              <mxPoint x="435" y="360" />
            </Array>
          </mxGeometry>
        </mxCell>
        <mxCell id="fCIiJYiWn4612jN8ktfM-103" value="ชื่อญาติที่ติดต่อได้ 1" style="text;html=1;strokeColor=none;fillColor=none;align=center;verticalAlign=middle;whiteSpace=wrap;rounded=0;" parent="1" vertex="1">
          <mxGeometry x="190" y="340" width="145" height="20" as="geometry" />
        </mxCell>
        <mxCell id="fCIiJYiWn4612jN8ktfM-105" value="" style="endArrow=classic;html=1;" parent="1" edge="1">
          <mxGeometry width="50" height="50" relative="1" as="geometry">
            <mxPoint x="140" y="420" as="sourcePoint" />
            <mxPoint x="460" y="389" as="targetPoint" />
            <Array as="points">
              <mxPoint x="140" y="320" />
              <mxPoint x="270" y="320" />
              <mxPoint x="460" y="320" />
              <mxPoint x="460" y="360" />
            </Array>
          </mxGeometry>
        </mxCell>
        <mxCell id="fCIiJYiWn4612jN8ktfM-106" value="เบอร์โทรศัพท์ของญาติ 1" style="text;html=1;strokeColor=none;fillColor=none;align=center;verticalAlign=middle;whiteSpace=wrap;rounded=0;" parent="1" vertex="1">
          <mxGeometry x="195" y="300" width="145" height="20" as="geometry" />
        </mxCell>
        <mxCell id="fCIiJYiWn4612jN8ktfM-107" value="" style="endArrow=classic;html=1;entryX=0.605;entryY=1.021;entryDx=0;entryDy=0;entryPerimeter=0;" parent="1" target="fCIiJYiWn4612jN8ktfM-63" edge="1">
          <mxGeometry width="50" height="50" relative="1" as="geometry">
            <mxPoint x="138" y="490" as="sourcePoint" />
            <mxPoint x="402.5" y="630" as="targetPoint" />
            <Array as="points">
              <mxPoint x="137.5" y="600" />
              <mxPoint x="257.5" y="600" />
              <mxPoint x="449" y="600" />
            </Array>
          </mxGeometry>
        </mxCell>
        <mxCell id="fCIiJYiWn4612jN8ktfM-108" value="ชื่อญาติที่ติดต่อได้ 2" style="text;html=1;strokeColor=none;fillColor=none;align=center;verticalAlign=middle;whiteSpace=wrap;rounded=0;" parent="1" vertex="1">
          <mxGeometry x="157.5" y="580" width="145" height="20" as="geometry" />
        </mxCell>
        <mxCell id="fCIiJYiWn4612jN8ktfM-109" value="" style="endArrow=classic;html=1;entryX=0.438;entryY=1.001;entryDx=0;entryDy=0;entryPerimeter=0;exitX=0.656;exitY=1.072;exitDx=0;exitDy=0;exitPerimeter=0;" parent="1" source="fCIiJYiWn4612jN8ktfM-62" target="fCIiJYiWn4612jN8ktfM-63" edge="1">
          <mxGeometry width="50" height="50" relative="1" as="geometry">
            <mxPoint x="107.5" y="660" as="sourcePoint" />
            <mxPoint x="427.5" y="629" as="targetPoint" />
            <Array as="points">
              <mxPoint x="169" y="560" />
              <mxPoint x="237.5" y="560" />
              <mxPoint x="427.5" y="560" />
            </Array>
          </mxGeometry>
        </mxCell>
        <mxCell id="fCIiJYiWn4612jN8ktfM-110" value="เบอร์โทรศัพท์ของญาติ 2" style="text;html=1;strokeColor=none;fillColor=none;align=center;verticalAlign=middle;whiteSpace=wrap;rounded=0;" parent="1" vertex="1">
          <mxGeometry x="162.5" y="540" width="145" height="20" as="geometry" />
        </mxCell>
        <mxCell id="fCIiJYiWn4612jN8ktfM-111" value="" style="endArrow=classic;html=1;" parent="1" edge="1">
          <mxGeometry width="50" height="50" relative="1" as="geometry">
            <mxPoint x="120" y="420" as="sourcePoint" />
            <mxPoint x="470" y="399" as="targetPoint" />
            <Array as="points">
              <mxPoint x="120" y="350" />
              <mxPoint x="120" y="270" />
              <mxPoint x="280" y="270" />
              <mxPoint x="470" y="270" />
              <mxPoint x="470" y="370" />
            </Array>
          </mxGeometry>
        </mxCell>
        <mxCell id="fCIiJYiWn4612jN8ktfM-112" value="เลขประจำตัวผู้พิการ" style="text;html=1;strokeColor=none;fillColor=none;align=center;verticalAlign=middle;whiteSpace=wrap;rounded=0;" parent="1" vertex="1">
          <mxGeometry x="213.75" y="250" width="142.5" height="20" as="geometry" />
        </mxCell>
        <mxCell id="fCIiJYiWn4612jN8ktfM-113" value="&lt;font style=&quot;font-size: 15px&quot;&gt;ข้อความยืนยัน&lt;/font&gt;" style="text;html=1;align=center;verticalAlign=middle;resizable=0;points=[];autosize=1;" parent="1" vertex="1">
          <mxGeometry x="215" y="630" width="100" height="20" as="geometry" />
        </mxCell>
        <mxCell id="fCIiJYiWn4612jN8ktfM-114" value="" style="endArrow=classic;html=1;exitX=0.695;exitY=0.995;exitDx=0;exitDy=0;exitPerimeter=0;entryX=0.167;entryY=1.083;entryDx=0;entryDy=0;entryPerimeter=0;" parent="1" source="fCIiJYiWn4612jN8ktfM-63" target="fCIiJYiWn4612jN8ktfM-62" edge="1">
          <mxGeometry width="50" height="50" relative="1" as="geometry">
            <mxPoint x="148" y="500" as="sourcePoint" />
            <mxPoint x="130" y="650" as="targetPoint" />
            <Array as="points">
              <mxPoint x="459" y="630" />
              <mxPoint x="268" y="630" />
              <mxPoint x="110" y="630" />
            </Array>
          </mxGeometry>
        </mxCell>
        <mxCell id="DhUhNMIcTAkUQ8G5tD7P-1" value="&lt;font style=&quot;font-size: 19px&quot;&gt;ไม้เท้า&lt;/font&gt;" style="rounded=0;whiteSpace=wrap;html=1;" vertex="1" parent="1">
          <mxGeometry x="75" y="975" width="120" height="60" as="geometry" />
        </mxCell>
        <mxCell id="DhUhNMIcTAkUQ8G5tD7P-2" value="&lt;font style=&quot;font-size: 16px&quot;&gt;ส่งข้อมูล&lt;br&gt;&lt;/font&gt;" style="ellipse;whiteSpace=wrap;html=1;aspect=fixed;" vertex="1" parent="1">
          <mxGeometry x="344" y="940" width="130" height="130" as="geometry" />
        </mxCell>
        <mxCell id="DhUhNMIcTAkUQ8G5tD7P-3" value="" style="endArrow=classic;html=1;" edge="1" parent="1">
          <mxGeometry width="50" height="50" relative="1" as="geometry">
            <mxPoint x="195" y="995" as="sourcePoint" />
            <mxPoint x="335" y="995" as="targetPoint" />
          </mxGeometry>
        </mxCell>
        <mxCell id="DhUhNMIcTAkUQ8G5tD7P-4" value="&lt;font style=&quot;font-size: 14px&quot;&gt;อุณหภมิ&lt;/font&gt;" style="text;html=1;align=center;verticalAlign=middle;resizable=0;points=[];autosize=1;" vertex="1" parent="1">
          <mxGeometry x="225" y="970" width="60" height="20" as="geometry" />
        </mxCell>
        <mxCell id="DhUhNMIcTAkUQ8G5tD7P-5" value="" style="endArrow=classic;html=1;" edge="1" parent="1">
          <mxGeometry width="50" height="50" relative="1" as="geometry">
            <mxPoint x="195" y="1025" as="sourcePoint" />
            <mxPoint x="335" y="1025" as="targetPoint" />
          </mxGeometry>
        </mxCell>
        <mxCell id="DhUhNMIcTAkUQ8G5tD7P-6" value="&lt;font style=&quot;font-size: 14px&quot;&gt;ความชื้น&lt;/font&gt;" style="text;html=1;align=center;verticalAlign=middle;resizable=0;points=[];autosize=1;" vertex="1" parent="1">
          <mxGeometry x="225" y="1005" width="60" height="20" as="geometry" />
        </mxCell>
        <mxCell id="DhUhNMIcTAkUQ8G5tD7P-14" value="" style="group" vertex="1" connectable="0" parent="1">
          <mxGeometry x="645" y="995" width="100" height="20" as="geometry" />
        </mxCell>
        <mxCell id="DhUhNMIcTAkUQ8G5tD7P-15" value="" style="shape=link;html=1;width=49;" edge="1" parent="DhUhNMIcTAkUQ8G5tD7P-14">
          <mxGeometry width="100" relative="1" as="geometry">
            <mxPoint y="10" as="sourcePoint" />
            <mxPoint x="100" y="10" as="targetPoint" />
          </mxGeometry>
        </mxCell>
        <mxCell id="DhUhNMIcTAkUQ8G5tD7P-16" value="&lt;span style=&quot;font-size: 15px&quot;&gt;App&lt;/span&gt;" style="text;html=1;align=center;verticalAlign=middle;resizable=0;points=[];autosize=1;" vertex="1" parent="DhUhNMIcTAkUQ8G5tD7P-14">
          <mxGeometry x="30" width="40" height="20" as="geometry" />
        </mxCell>
        <mxCell id="DhUhNMIcTAkUQ8G5tD7P-19" value="&lt;span style=&quot;font-size: 14px&quot;&gt;ระยะห่าง&lt;/span&gt;" style="text;html=1;align=center;verticalAlign=middle;resizable=0;points=[];autosize=1;" vertex="1" parent="1">
          <mxGeometry x="225" y="940" width="70" height="20" as="geometry" />
        </mxCell>
        <mxCell id="DhUhNMIcTAkUQ8G5tD7P-21" value="" style="endArrow=classic;html=1;" edge="1" parent="1">
          <mxGeometry width="50" height="50" relative="1" as="geometry">
            <mxPoint x="170" y="975" as="sourcePoint" />
            <mxPoint x="340" y="960" as="targetPoint" />
            <Array as="points">
              <mxPoint x="170" y="960" />
              <mxPoint x="290" y="960" />
            </Array>
          </mxGeometry>
        </mxCell>
        <mxCell id="DhUhNMIcTAkUQ8G5tD7P-22" value="" style="endArrow=classic;html=1;" edge="1" parent="1" target="DhUhNMIcTAkUQ8G5tD7P-2">
          <mxGeometry width="50" height="50" relative="1" as="geometry">
            <mxPoint x="132.5" y="972" as="sourcePoint" />
            <mxPoint x="302.5" y="957" as="targetPoint" />
            <Array as="points">
              <mxPoint x="133" y="940" />
              <mxPoint x="253" y="940" />
              <mxPoint x="360" y="940" />
            </Array>
          </mxGeometry>
        </mxCell>
        <mxCell id="DhUhNMIcTAkUQ8G5tD7P-23" value="&lt;span style=&quot;font-size: 14px&quot;&gt;ภาพ&lt;/span&gt;" style="text;html=1;align=center;verticalAlign=middle;resizable=0;points=[];autosize=1;" vertex="1" parent="1">
          <mxGeometry x="230" y="910" width="40" height="20" as="geometry" />
        </mxCell>
        <mxCell id="DhUhNMIcTAkUQ8G5tD7P-24" value="" style="endArrow=classic;html=1;" edge="1" parent="1">
          <mxGeometry width="50" height="50" relative="1" as="geometry">
            <mxPoint x="130" y="1040" as="sourcePoint" />
            <mxPoint x="340" y="1060" as="targetPoint" />
            <Array as="points">
              <mxPoint x="130" y="1060" />
            </Array>
          </mxGeometry>
        </mxCell>
        <mxCell id="DhUhNMIcTAkUQ8G5tD7P-25" value="&lt;span style=&quot;font-size: 14px&quot;&gt;เเกน X&lt;/span&gt;" style="text;html=1;align=center;verticalAlign=middle;resizable=0;points=[];autosize=1;" vertex="1" parent="1">
          <mxGeometry x="235" y="1035" width="50" height="20" as="geometry" />
        </mxCell>
        <mxCell id="DhUhNMIcTAkUQ8G5tD7P-26" value="" style="endArrow=classic;html=1;" edge="1" parent="1">
          <mxGeometry width="50" height="50" relative="1" as="geometry">
            <mxPoint x="100" y="1040" as="sourcePoint" />
            <mxPoint x="370" y="1069" as="targetPoint" />
            <Array as="points">
              <mxPoint x="100" y="1080" />
              <mxPoint x="160" y="1080" />
              <mxPoint x="330" y="1080" />
            </Array>
          </mxGeometry>
        </mxCell>
        <mxCell id="DhUhNMIcTAkUQ8G5tD7P-27" value="&lt;span style=&quot;font-size: 14px&quot;&gt;เเกน y&lt;/span&gt;" style="text;html=1;align=center;verticalAlign=middle;resizable=0;points=[];autosize=1;" vertex="1" parent="1">
          <mxGeometry x="225" y="1060" width="50" height="20" as="geometry" />
        </mxCell>
        <mxCell id="DhUhNMIcTAkUQ8G5tD7P-40" value="&lt;span style=&quot;font-size: 14px&quot;&gt;ภาพ&lt;/span&gt;" style="text;html=1;align=center;verticalAlign=middle;resizable=0;points=[];autosize=1;" vertex="1" parent="1">
          <mxGeometry x="230.18" y="910" width="40" height="20" as="geometry" />
        </mxCell>
        <mxCell id="DhUhNMIcTAkUQ8G5tD7P-41" value="" style="endArrow=classic;html=1;" edge="1" parent="1">
          <mxGeometry width="50" height="50" relative="1" as="geometry">
            <mxPoint x="132.68" y="972" as="sourcePoint" />
            <mxPoint x="370.0036553926222" y="953.132726857838" as="targetPoint" />
            <Array as="points">
              <mxPoint x="133.18" y="940" />
              <mxPoint x="253.18" y="940" />
              <mxPoint x="360.18" y="940" />
            </Array>
          </mxGeometry>
        </mxCell>
        <mxCell id="DhUhNMIcTAkUQ8G5tD7P-42" value="" style="endArrow=classic;html=1;" edge="1" parent="1">
          <mxGeometry width="50" height="50" relative="1" as="geometry">
            <mxPoint x="170.18" y="975" as="sourcePoint" />
            <mxPoint x="340.18" y="960" as="targetPoint" />
            <Array as="points">
              <mxPoint x="170.18" y="960" />
              <mxPoint x="290.18" y="960" />
            </Array>
          </mxGeometry>
        </mxCell>
        <mxCell id="DhUhNMIcTAkUQ8G5tD7P-43" value="&lt;font style=&quot;font-size: 14px&quot;&gt;อุณหภมิ&lt;/font&gt;" style="text;html=1;align=center;verticalAlign=middle;resizable=0;points=[];autosize=1;" vertex="1" parent="1">
          <mxGeometry x="225.18" y="970" width="60" height="20" as="geometry" />
        </mxCell>
        <mxCell id="DhUhNMIcTAkUQ8G5tD7P-44" value="" style="endArrow=classic;html=1;" edge="1" parent="1">
          <mxGeometry width="50" height="50" relative="1" as="geometry">
            <mxPoint x="195.18" y="995" as="sourcePoint" />
            <mxPoint x="335.18" y="995" as="targetPoint" />
          </mxGeometry>
        </mxCell>
        <mxCell id="DhUhNMIcTAkUQ8G5tD7P-45" value="&lt;font style=&quot;font-size: 14px&quot;&gt;ความชื้น&lt;/font&gt;" style="text;html=1;align=center;verticalAlign=middle;resizable=0;points=[];autosize=1;" vertex="1" parent="1">
          <mxGeometry x="225.18" y="1005" width="60" height="20" as="geometry" />
        </mxCell>
        <mxCell id="DhUhNMIcTAkUQ8G5tD7P-46" value="" style="endArrow=classic;html=1;" edge="1" parent="1">
          <mxGeometry width="50" height="50" relative="1" as="geometry">
            <mxPoint x="195.18" y="1025" as="sourcePoint" />
            <mxPoint x="335.18" y="1025" as="targetPoint" />
          </mxGeometry>
        </mxCell>
        <mxCell id="DhUhNMIcTAkUQ8G5tD7P-47" value="" style="endArrow=classic;html=1;" edge="1" parent="1">
          <mxGeometry width="50" height="50" relative="1" as="geometry">
            <mxPoint x="470" y="1050" as="sourcePoint" />
            <mxPoint x="650" y="1040" as="targetPoint" />
            <Array as="points" />
          </mxGeometry>
        </mxCell>
        <mxCell id="DhUhNMIcTAkUQ8G5tD7P-48" value="&lt;span style=&quot;font-size: 14px&quot;&gt;เเกน X&lt;/span&gt;" style="text;html=1;align=center;verticalAlign=middle;resizable=0;points=[];autosize=1;" vertex="1" parent="1">
          <mxGeometry x="540" y="1025" width="50" height="20" as="geometry" />
        </mxCell>
        <mxCell id="DhUhNMIcTAkUQ8G5tD7P-49" value="" style="endArrow=classic;html=1;" edge="1" parent="1">
          <mxGeometry width="50" height="50" relative="1" as="geometry">
            <mxPoint x="405" y="1070" as="sourcePoint" />
            <mxPoint x="690" y="1040" as="targetPoint" />
            <Array as="points">
              <mxPoint x="405" y="1070" />
              <mxPoint x="405" y="1090" />
              <mxPoint x="465" y="1090" />
              <mxPoint x="580" y="1090" />
              <mxPoint x="690" y="1090" />
            </Array>
          </mxGeometry>
        </mxCell>
        <mxCell id="DhUhNMIcTAkUQ8G5tD7P-50" value="&lt;span style=&quot;font-size: 14px&quot;&gt;เเกน y&lt;/span&gt;" style="text;html=1;align=center;verticalAlign=middle;resizable=0;points=[];autosize=1;" vertex="1" parent="1">
          <mxGeometry x="530.18" y="1070" width="50" height="20" as="geometry" />
        </mxCell>
        <mxCell id="DhUhNMIcTAkUQ8G5tD7P-51" value="&lt;span style=&quot;font-size: 14px&quot;&gt;ภาพ&lt;/span&gt;" style="text;html=1;align=center;verticalAlign=middle;resizable=0;points=[];autosize=1;" vertex="1" parent="1">
          <mxGeometry x="535.0000000000001" y="900" width="40" height="20" as="geometry" />
        </mxCell>
        <mxCell id="DhUhNMIcTAkUQ8G5tD7P-52" value="" style="endArrow=classic;html=1;" edge="1" parent="1">
          <mxGeometry width="50" height="50" relative="1" as="geometry">
            <mxPoint x="437" y="940" as="sourcePoint" />
            <mxPoint x="700" y="970" as="targetPoint" />
            <Array as="points">
              <mxPoint x="437.02" y="928" />
              <mxPoint x="664.0200000000001" y="928" />
            </Array>
          </mxGeometry>
        </mxCell>
        <mxCell id="DhUhNMIcTAkUQ8G5tD7P-53" value="" style="endArrow=classic;html=1;exitX=0.892;exitY=0.192;exitDx=0;exitDy=0;exitPerimeter=0;" edge="1" parent="1" source="DhUhNMIcTAkUQ8G5tD7P-2">
          <mxGeometry width="50" height="50" relative="1" as="geometry">
            <mxPoint x="475.17999999999995" y="965" as="sourcePoint" />
            <mxPoint x="660" y="965" as="targetPoint" />
            <Array as="points">
              <mxPoint x="475.18" y="950" />
              <mxPoint x="595.1800000000001" y="950" />
            </Array>
          </mxGeometry>
        </mxCell>
        <mxCell id="DhUhNMIcTAkUQ8G5tD7P-54" value="&lt;font style=&quot;font-size: 14px&quot;&gt;อุณหภมิ&lt;/font&gt;" style="text;html=1;align=center;verticalAlign=middle;resizable=0;points=[];autosize=1;" vertex="1" parent="1">
          <mxGeometry x="530.1800000000001" y="960" width="60" height="20" as="geometry" />
        </mxCell>
        <mxCell id="DhUhNMIcTAkUQ8G5tD7P-55" value="" style="endArrow=classic;html=1;" edge="1" parent="1">
          <mxGeometry width="50" height="50" relative="1" as="geometry">
            <mxPoint x="480" y="985" as="sourcePoint" />
            <mxPoint x="640.1800000000001" y="985" as="targetPoint" />
          </mxGeometry>
        </mxCell>
        <mxCell id="DhUhNMIcTAkUQ8G5tD7P-56" value="&lt;font style=&quot;font-size: 14px&quot;&gt;ความชื้น&lt;/font&gt;" style="text;html=1;align=center;verticalAlign=middle;resizable=0;points=[];autosize=1;" vertex="1" parent="1">
          <mxGeometry x="530.1800000000001" y="995" width="60" height="20" as="geometry" />
        </mxCell>
        <mxCell id="DhUhNMIcTAkUQ8G5tD7P-57" value="" style="endArrow=classic;html=1;" edge="1" parent="1">
          <mxGeometry width="50" height="50" relative="1" as="geometry">
            <mxPoint x="480" y="1015" as="sourcePoint" />
            <mxPoint x="640.1800000000001" y="1015" as="targetPoint" />
          </mxGeometry>
        </mxCell>
        <mxCell id="DhUhNMIcTAkUQ8G5tD7P-58" value="&lt;span style=&quot;font-size: 14px&quot;&gt;ระยะห่าง&lt;/span&gt;" style="text;html=1;align=center;verticalAlign=middle;resizable=0;points=[];autosize=1;" vertex="1" parent="1">
          <mxGeometry x="520.1800000000001" y="930" width="70" height="20" as="geometry" />
        </mxCell>
      </root>
    </mxGraphModel>
  </diagram>
  <diagram name="หน้า-2" id="KZ_9aMzMzVM4HU8MMmKl">
    <mxGraphModel dx="1038" dy="580" grid="1" gridSize="10" guides="1" tooltips="1" connect="1" arrows="1" fold="1" page="1" pageScale="1" pageWidth="827" pageHeight="1169" math="0" shadow="0">
      <root>
        <mxCell id="LWsNOT9FvR6j0qcLNQUw-0" />
        <mxCell id="LWsNOT9FvR6j0qcLNQUw-1" parent="LWsNOT9FvR6j0qcLNQUw-0" />
      </root>
    </mxGraphModel>
  </diagram>
</mxfile>
